<?xml version="1.0" encoding="UTF-8" standalone="no"?>
<!DOCTYPE svg PUBLIC "-//W3C//DTD SVG 1.1//EN"
 "http://www.w3.org/Graphics/SVG/1.1/DTD/svg11.dtd">
<!-- Generated by graphviz version 2.38.0 (20140413.2041)
 -->
<!-- Title: controllers_diagram Pages: 1 -->
<svg width="691pt" height="637pt"
 viewBox="0.00 0.00 691.43 637.00" xmlns="http://www.w3.org/2000/svg" xmlns:xlink="http://www.w3.org/1999/xlink">
<g id="graph0" class="graph" transform="scale(1 1) rotate(0) translate(259.821 393.5)">
<title>controllers_diagram</title>
<polygon fill="none" stroke="none" points="-259.821,243.5 -259.821,-393.5 431.614,-393.5 431.614,243.5 -259.821,243.5"/>
<!-- _diagram_info -->
<g id="node1" class="node"><title>_diagram_info</title>
<text text-anchor="start" x="7.78833" y="164.9" font-family="Times,serif" font-size="13.00">Controllers diagram</text>
<text text-anchor="start" x="7.78833" y="177.9" font-family="Times,serif" font-size="13.00">Date: May 11 2016 &#45; 16:39</text>
<text text-anchor="start" x="7.78833" y="190.9" font-family="Times,serif" font-size="13.00">Migration version: 20160511121228</text>
<text text-anchor="start" x="7.78833" y="203.9" font-family="Times,serif" font-size="13.00">Generated by RailRoady 1.4.2</text>
<text text-anchor="start" x="7.78833" y="216.9" font-family="Times,serif" font-size="13.00">http://railroady.prestonlee.com</text>
</g>
<!-- Api::Admin::BaseController -->
<g id="node2" class="node"><title>Api::Admin::BaseController</title>
<path fill="none" stroke="black" d="M-212.104,223C-212.104,223 -59.8965,223 -59.8965,223 -53.8965,223 -47.8965,217 -47.8965,211 -47.8965,211 -47.8965,131 -47.8965,131 -47.8965,125 -53.8965,119 -59.8965,119 -59.8965,119 -212.104,119 -212.104,119 -218.104,119 -224.104,125 -224.104,131 -224.104,131 -224.104,211 -224.104,211 -224.104,217 -218.104,223 -212.104,223"/>
<text text-anchor="middle" x="-136" y="134.2" font-family="Times,serif" font-size="14.00">Api::Admin::BaseController</text>
<polyline fill="none" stroke="black" points="-224.104,141 -47.8965,141 "/>
<text text-anchor="start" x="-216.104" y="156.2" font-family="Times,serif" font-size="14.00">api_authenticate_admin!</text>
<text text-anchor="start" x="-216.104" y="170.2" font-family="Times,serif" font-size="14.00">api_authenticate_manager!</text>
<polyline fill="none" stroke="black" points="-224.104,177 -47.8965,177 "/>
<polyline fill="none" stroke="black" points="-224.104,201 -47.8965,201 "/>
<text text-anchor="start" x="-216.104" y="216.2" font-family="Times,serif" font-size="14.00">_layout</text>
</g>
<!-- Api::Admin::TripsController -->
<g id="node3" class="node"><title>Api::Admin::TripsController</title>
<path fill="none" stroke="black" d="M-84.0298,79C-84.0298,79 70.0298,79 70.0298,79 76.0298,79 82.0298,73 82.0298,67 82.0298,67 82.0298,-55 82.0298,-55 82.0298,-61 76.0298,-67 70.0298,-67 70.0298,-67 -84.0298,-67 -84.0298,-67 -90.0298,-67 -96.0298,-61 -96.0298,-55 -96.0298,-55 -96.0298,67 -96.0298,67 -96.0298,73 -90.0298,79 -84.0298,79"/>
<text text-anchor="middle" x="-7" y="-51.8" font-family="Times,serif" font-size="14.00">Api::Admin::TripsController</text>
<polyline fill="none" stroke="black" points="-96.0298,-45 82.0298,-45 "/>
<text text-anchor="start" x="-88.0298" y="-29.8" font-family="Times,serif" font-size="14.00">create</text>
<text text-anchor="start" x="-88.0298" y="-15.8" font-family="Times,serif" font-size="14.00">destroy</text>
<text text-anchor="start" x="-88.0298" y="-1.8" font-family="Times,serif" font-size="14.00">index</text>
<text text-anchor="start" x="-88.0298" y="12.2" font-family="Times,serif" font-size="14.00">show</text>
<text text-anchor="start" x="-88.0298" y="26.2" font-family="Times,serif" font-size="14.00">update</text>
<polyline fill="none" stroke="black" points="-96.0298,33 82.0298,33 "/>
<polyline fill="none" stroke="black" points="-96.0298,57 82.0298,57 "/>
<text text-anchor="start" x="-88.0298" y="72.2" font-family="Times,serif" font-size="14.00">_layout</text>
</g>
<!-- Api::Admin::UsersController -->
<g id="node4" class="node"><title>Api::Admin::UsersController</title>
<path fill="none" stroke="black" d="M107.562,-97C107.562,-97 264.438,-97 264.438,-97 270.438,-97 276.438,-103 276.438,-109 276.438,-109 276.438,-231 276.438,-231 276.438,-237 270.438,-243 264.438,-243 264.438,-243 107.562,-243 107.562,-243 101.562,-243 95.562,-237 95.562,-231 95.562,-231 95.562,-109 95.562,-109 95.562,-103 101.562,-97 107.562,-97"/>
<text text-anchor="middle" x="186" y="-227.8" font-family="Times,serif" font-size="14.00">Api::Admin::UsersController</text>
<polyline fill="none" stroke="black" points="95.562,-221 276.438,-221 "/>
<text text-anchor="start" x="103.562" y="-205.8" font-family="Times,serif" font-size="14.00">create</text>
<text text-anchor="start" x="103.562" y="-191.8" font-family="Times,serif" font-size="14.00">destroy</text>
<text text-anchor="start" x="103.562" y="-177.8" font-family="Times,serif" font-size="14.00">index</text>
<text text-anchor="start" x="103.562" y="-163.8" font-family="Times,serif" font-size="14.00">show</text>
<text text-anchor="start" x="103.562" y="-149.8" font-family="Times,serif" font-size="14.00">update</text>
<polyline fill="none" stroke="black" points="95.562,-143 276.438,-143 "/>
<polyline fill="none" stroke="black" points="95.562,-119 276.438,-119 "/>
<text text-anchor="start" x="103.562" y="-103.8" font-family="Times,serif" font-size="14.00">_layout</text>
</g>
<!-- Api::BaseController -->
<g id="node5" class="node"><title>Api::BaseController</title>
<path fill="none" stroke="black" d="M-68.3589,-257C-68.3589,-257 50.3589,-257 50.3589,-257 56.3589,-257 62.3589,-263 62.3589,-269 62.3589,-269 62.3589,-377 62.3589,-377 62.3589,-383 56.3589,-389 50.3589,-389 50.3589,-389 -68.3589,-389 -68.3589,-389 -74.3589,-389 -80.3589,-383 -80.3589,-377 -80.3589,-377 -80.3589,-269 -80.3589,-269 -80.3589,-263 -74.3589,-257 -68.3589,-257"/>
<text text-anchor="middle" x="-9" y="-373.8" font-family="Times,serif" font-size="14.00">Api::BaseController</text>
<polyline fill="none" stroke="black" points="-80.3589,-367 62.3589,-367 "/>
<polyline fill="none" stroke="black" points="-80.3589,-343 62.3589,-343 "/>
<text text-anchor="start" x="-72.3589" y="-327.8" font-family="Times,serif" font-size="14.00">api_authenticate_user!</text>
<text text-anchor="start" x="-72.3589" y="-313.8" font-family="Times,serif" font-size="14.00">render_errors</text>
<text text-anchor="start" x="-72.3589" y="-299.8" font-family="Times,serif" font-size="14.00">render_message</text>
<text text-anchor="start" x="-72.3589" y="-285.8" font-family="Times,serif" font-size="14.00">render_object</text>
<polyline fill="none" stroke="black" points="-80.3589,-279 62.3589,-279 "/>
<text text-anchor="start" x="-72.3589" y="-263.8" font-family="Times,serif" font-size="14.00">_layout</text>
</g>
<!-- Api::RegistrationsController -->
<g id="node6" class="node"><title>Api::RegistrationsController</title>
<path fill="none" stroke="black" d="M251.896,239C251.896,239 404.104,239 404.104,239 410.104,239 416.104,233 416.104,227 416.104,227 416.104,161 416.104,161 416.104,155 410.104,149 404.104,149 404.104,149 251.896,149 251.896,149 245.896,149 239.896,155 239.896,161 239.896,161 239.896,227 239.896,227 239.896,233 245.896,239 251.896,239"/>
<text text-anchor="middle" x="328" y="164.2" font-family="Times,serif" font-size="14.00">Api::RegistrationsController</text>
<polyline fill="none" stroke="black" points="239.896,171 416.104,171 "/>
<text text-anchor="start" x="247.896" y="186.2" font-family="Times,serif" font-size="14.00">create</text>
<polyline fill="none" stroke="black" points="239.896,193 416.104,193 "/>
<polyline fill="none" stroke="black" points="239.896,217 416.104,217 "/>
<text text-anchor="start" x="247.896" y="232.2" font-family="Times,serif" font-size="14.00">_layout</text>
</g>
<!-- Api::SessionsController -->
<g id="node7" class="node"><title>Api::SessionsController</title>
<path fill="none" stroke="black" d="M-68.2793,-97C-68.2793,-97 58.2793,-97 58.2793,-97 64.2793,-97 70.2793,-103 70.2793,-109 70.2793,-109 70.2793,-217 70.2793,-217 70.2793,-223 64.2793,-229 58.2793,-229 58.2793,-229 -68.2793,-229 -68.2793,-229 -74.2793,-229 -80.2793,-223 -80.2793,-217 -80.2793,-217 -80.2793,-109 -80.2793,-109 -80.2793,-103 -74.2793,-97 -68.2793,-97"/>
<text text-anchor="middle" x="-5" y="-213.8" font-family="Times,serif" font-size="14.00">Api::SessionsController</text>
<polyline fill="none" stroke="black" points="-80.2793,-207 70.2793,-207 "/>
<text text-anchor="start" x="-72.2793" y="-191.8" font-family="Times,serif" font-size="14.00">create</text>
<text text-anchor="start" x="-72.2793" y="-177.8" font-family="Times,serif" font-size="14.00">destroy</text>
<polyline fill="none" stroke="black" points="-80.2793,-171 70.2793,-171 "/>
<polyline fill="none" stroke="black" points="-80.2793,-147 70.2793,-147 "/>
<text text-anchor="start" x="-72.2793" y="-131.8" font-family="Times,serif" font-size="14.00">_layout</text>
<text text-anchor="start" x="-72.2793" y="-117.8" font-family="Times,serif" font-size="14.00">login_field</text>
<text text-anchor="start" x="-72.2793" y="-103.8" font-family="Times,serif" font-size="14.00">user</text>
</g>
<!-- Api::SolutionsController -->
<g id="node8" class="node"><title>Api::SolutionsController</title>
<path fill="none" stroke="black" d="M284.386,111C284.386,111 415.614,111 415.614,111 421.614,111 427.614,105 427.614,99 427.614,99 427.614,5 427.614,5 427.614,-1 421.614,-7 415.614,-7 415.614,-7 284.386,-7 284.386,-7 278.386,-7 272.386,-1 272.386,5 272.386,5 272.386,99 272.386,99 272.386,105 278.386,111 284.386,111"/>
<text text-anchor="middle" x="350" y="8.2" font-family="Times,serif" font-size="14.00">Api::SolutionsController</text>
<polyline fill="none" stroke="black" points="272.386,15 427.614,15 "/>
<text text-anchor="start" x="280.386" y="30.2" font-family="Times,serif" font-size="14.00">create</text>
<text text-anchor="start" x="280.386" y="44.2" font-family="Times,serif" font-size="14.00">index</text>
<text text-anchor="start" x="280.386" y="58.2" font-family="Times,serif" font-size="14.00">show</text>
<polyline fill="none" stroke="black" points="272.386,65 427.614,65 "/>
<polyline fill="none" stroke="black" points="272.386,89 427.614,89 "/>
<text text-anchor="start" x="280.386" y="104.2" font-family="Times,serif" font-size="14.00">_layout</text>
</g>
<!-- Api::TripsController -->
<g id="node9" class="node"><title>Api::TripsController</title>
<path fill="none" stroke="black" d="M124.305,111C124.305,111 231.695,111 231.695,111 237.695,111 243.695,105 243.695,99 243.695,99 243.695,-23 243.695,-23 243.695,-29 237.695,-35 231.695,-35 231.695,-35 124.305,-35 124.305,-35 118.305,-35 112.305,-29 112.305,-23 112.305,-23 112.305,99 112.305,99 112.305,105 118.305,111 124.305,111"/>
<text text-anchor="middle" x="178" y="-19.8" font-family="Times,serif" font-size="14.00">Api::TripsController</text>
<polyline fill="none" stroke="black" points="112.305,-13 243.695,-13 "/>
<text text-anchor="start" x="120.305" y="2.2" font-family="Times,serif" font-size="14.00">create</text>
<text text-anchor="start" x="120.305" y="16.2" font-family="Times,serif" font-size="14.00">destroy</text>
<text text-anchor="start" x="120.305" y="30.2" font-family="Times,serif" font-size="14.00">index</text>
<text text-anchor="start" x="120.305" y="44.2" font-family="Times,serif" font-size="14.00">show</text>
<text text-anchor="start" x="120.305" y="58.2" font-family="Times,serif" font-size="14.00">update</text>
<polyline fill="none" stroke="black" points="112.305,65 243.695,65 "/>
<polyline fill="none" stroke="black" points="112.305,89 243.695,89 "/>
<text text-anchor="start" x="120.305" y="104.2" font-family="Times,serif" font-size="14.00">_layout</text>
</g>
<!-- Api::UsersController -->
<g id="node10" class="node"><title>Api::UsersController</title>
<path fill="none" stroke="black" d="M-228.104,-241C-228.104,-241 -117.896,-241 -117.896,-241 -111.896,-241 -105.896,-247 -105.896,-253 -105.896,-253 -105.896,-319 -105.896,-319 -105.896,-325 -111.896,-331 -117.896,-331 -117.896,-331 -228.104,-331 -228.104,-331 -234.104,-331 -240.104,-325 -240.104,-319 -240.104,-319 -240.104,-253 -240.104,-253 -240.104,-247 -234.104,-241 -228.104,-241"/>
<text text-anchor="middle" x="-173" y="-315.8" font-family="Times,serif" font-size="14.00">Api::UsersController</text>
<polyline fill="none" stroke="black" points="-240.104,-309 -105.896,-309 "/>
<text text-anchor="start" x="-232.104" y="-293.8" font-family="Times,serif" font-size="14.00">show</text>
<polyline fill="none" stroke="black" points="-240.104,-287 -105.896,-287 "/>
<polyline fill="none" stroke="black" points="-240.104,-263 -105.896,-263 "/>
<text text-anchor="start" x="-232.104" y="-247.8" font-family="Times,serif" font-size="14.00">_layout</text>
</g>
<!-- ApplicationController -->
<g id="node11" class="node"><title>ApplicationController</title>
<path fill="none" stroke="black" d="M-243.821,-113C-243.821,-113 -128.179,-113 -128.179,-113 -122.179,-113 -116.179,-119 -116.179,-125 -116.179,-125 -116.179,-193 -116.179,-193 -116.179,-199 -122.179,-205 -128.179,-205 -128.179,-205 -243.821,-205 -243.821,-205 -249.821,-205 -255.821,-199 -255.821,-193 -255.821,-193 -255.821,-125 -255.821,-125 -255.821,-119 -249.821,-113 -243.821,-113"/>
<text text-anchor="middle" x="-186" y="-189.8" font-family="Times,serif" font-size="14.00">ApplicationController</text>
<polyline fill="none" stroke="black" points="-255.821,-183 -116.179,-183 "/>
<polyline fill="none" stroke="black" points="-255.821,-159 -116.179,-159 "/>
<polyline fill="none" stroke="black" points="-255.821,-135 -116.179,-135 "/>
<text text-anchor="start" x="-247.821" y="-119.8" font-family="Times,serif" font-size="14.00">_layout</text>
</g>
<!-- HomeController -->
<g id="node12" class="node"><title>HomeController</title>
<path fill="none" stroke="black" d="M-227.879,15C-227.879,15 -144.121,15 -144.121,15 -138.121,15 -132.121,9 -132.121,3 -132.121,3 -132.121,-63 -132.121,-63 -132.121,-69 -138.121,-75 -144.121,-75 -144.121,-75 -227.879,-75 -227.879,-75 -233.879,-75 -239.879,-69 -239.879,-63 -239.879,-63 -239.879,3 -239.879,3 -239.879,9 -233.879,15 -227.879,15"/>
<text text-anchor="middle" x="-186" y="-59.8" font-family="Times,serif" font-size="14.00">HomeController</text>
<polyline fill="none" stroke="black" points="-239.879,-53 -132.121,-53 "/>
<text text-anchor="start" x="-231.879" y="-37.8" font-family="Times,serif" font-size="14.00">index</text>
<polyline fill="none" stroke="black" points="-239.879,-31 -132.121,-31 "/>
<polyline fill="none" stroke="black" points="-239.879,-7 -132.121,-7 "/>
<text text-anchor="start" x="-231.879" y="8.2" font-family="Times,serif" font-size="14.00">_layout</text>
</g>
</g>
</svg>
