<?xml version="1.0" encoding="UTF-8" standalone="no"?>
<!DOCTYPE svg PUBLIC "-//W3C//DTD SVG 1.1//EN"
 "http://www.w3.org/Graphics/SVG/1.1/DTD/svg11.dtd">
<!-- Generated by graphviz version 2.38.0 (20140413.2041)
 -->
<!-- Title: models_diagram Pages: 1 -->
<svg width="746pt" height="344pt"
 viewBox="0.00 0.00 746.07 344.00" xmlns="http://www.w3.org/2000/svg" xmlns:xlink="http://www.w3.org/1999/xlink">
<g id="graph0" class="graph" transform="scale(1 1) rotate(0) translate(4 340)">
<title>models_diagram</title>
<polygon fill="none" stroke="none" points="-4,4 -4,-340 742.074,-340 742.074,4 -4,4"/>
<!-- _diagram_info -->
<g id="node1" class="node"><title>_diagram_info</title>
<text text-anchor="start" x="8" y="-293.6" font-family="Times,serif" font-size="13.00">Models diagram</text>
<text text-anchor="start" x="8" y="-280.6" font-family="Times,serif" font-size="13.00">Date: May 11 2016 &#45; 16:39</text>
<text text-anchor="start" x="8" y="-267.6" font-family="Times,serif" font-size="13.00">Migration version: 20160511121228</text>
<text text-anchor="start" x="8" y="-254.6" font-family="Times,serif" font-size="13.00">Generated by RailRoady 1.4.2</text>
<text text-anchor="start" x="8" y="-241.6" font-family="Times,serif" font-size="13.00">http://railroady.prestonlee.com</text>
</g>
<!-- Solution -->
<g id="node2" class="node"><title>Solution</title>
<path fill="none" stroke="black" d="M236.349,-207.5C236.349,-207.5 460.074,-207.5 460.074,-207.5 466.074,-207.5 472.074,-213.5 472.074,-219.5 472.074,-219.5 472.074,-323.5 472.074,-323.5 472.074,-329.5 466.074,-335.5 460.074,-335.5 460.074,-335.5 236.349,-335.5 236.349,-335.5 230.349,-335.5 224.349,-329.5 224.349,-323.5 224.349,-323.5 224.349,-219.5 224.349,-219.5 224.349,-213.5 230.349,-207.5 236.349,-207.5"/>
<text text-anchor="middle" x="348.212" y="-320.3" font-family="Times,serif" font-size="14.00">Solution</text>
<polyline fill="none" stroke="black" points="224.349,-313.5 472.074,-313.5 "/>
<text text-anchor="start" x="232.349" y="-298.3" font-family="Times,serif" font-size="14.00">created_at :timestamp without time zone</text>
<text text-anchor="start" x="232.349" y="-284.3" font-family="Times,serif" font-size="14.00">result :hstore</text>
<text text-anchor="start" x="232.349" y="-270.3" font-family="Times,serif" font-size="14.00">state :character varying</text>
<text text-anchor="start" x="232.349" y="-256.3" font-family="Times,serif" font-size="14.00">id :integer</text>
<text text-anchor="start" x="232.349" y="-242.3" font-family="Times,serif" font-size="14.00">updated_at :timestamp without time zone</text>
<text text-anchor="start" x="232.349" y="-228.3" font-family="Times,serif" font-size="14.00">user_id :integer</text>
<text text-anchor="start" x="232.349" y="-214.3" font-family="Times,serif" font-size="14.00">date :date</text>
</g>
<!-- Trip -->
<g id="node3" class="node"><title>Trip</title>
<path fill="none" stroke="black" d="M502.349,-0.5C502.349,-0.5 726.074,-0.5 726.074,-0.5 732.074,-0.5 738.074,-6.5 738.074,-12.5 738.074,-12.5 738.074,-158.5 738.074,-158.5 738.074,-164.5 732.074,-170.5 726.074,-170.5 726.074,-170.5 502.349,-170.5 502.349,-170.5 496.349,-170.5 490.349,-164.5 490.349,-158.5 490.349,-158.5 490.349,-12.5 490.349,-12.5 490.349,-6.5 496.349,-0.5 502.349,-0.5"/>
<text text-anchor="middle" x="614.212" y="-155.3" font-family="Times,serif" font-size="14.00">Trip</text>
<polyline fill="none" stroke="black" points="490.349,-148.5 738.074,-148.5 "/>
<text text-anchor="start" x="498.349" y="-133.3" font-family="Times,serif" font-size="14.00">longitude :double precision</text>
<text text-anchor="start" x="498.349" y="-119.3" font-family="Times,serif" font-size="14.00">destination :character varying</text>
<text text-anchor="start" x="498.349" y="-105.3" font-family="Times,serif" font-size="14.00">start_date :timestamp without time zone</text>
<text text-anchor="start" x="498.349" y="-91.3" font-family="Times,serif" font-size="14.00">end_date :timestamp without time zone</text>
<text text-anchor="start" x="498.349" y="-77.3" font-family="Times,serif" font-size="14.00">comment :text</text>
<text text-anchor="start" x="498.349" y="-63.3" font-family="Times,serif" font-size="14.00">user_id :integer</text>
<text text-anchor="start" x="498.349" y="-49.3" font-family="Times,serif" font-size="14.00">created_at :timestamp without time zone</text>
<text text-anchor="start" x="498.349" y="-35.3" font-family="Times,serif" font-size="14.00">updated_at :timestamp without time zone</text>
<text text-anchor="start" x="498.349" y="-21.3" font-family="Times,serif" font-size="14.00">latitude :double precision</text>
<text text-anchor="start" x="498.349" y="-7.3" font-family="Times,serif" font-size="14.00">id :integer</text>
</g>
<!-- User -->
<g id="node4" class="node"><title>User</title>
<path fill="none" stroke="black" d="M502.349,-214.5C502.349,-214.5 726.074,-214.5 726.074,-214.5 732.074,-214.5 738.074,-220.5 738.074,-226.5 738.074,-226.5 738.074,-316.5 738.074,-316.5 738.074,-322.5 732.074,-328.5 726.074,-328.5 726.074,-328.5 502.349,-328.5 502.349,-328.5 496.349,-328.5 490.349,-322.5 490.349,-316.5 490.349,-316.5 490.349,-226.5 490.349,-226.5 490.349,-220.5 496.349,-214.5 502.349,-214.5"/>
<text text-anchor="middle" x="614.212" y="-313.3" font-family="Times,serif" font-size="14.00">User</text>
<polyline fill="none" stroke="black" points="490.349,-306.5 738.074,-306.5 "/>
<text text-anchor="start" x="498.349" y="-291.3" font-family="Times,serif" font-size="14.00">id :integer</text>
<text text-anchor="start" x="498.349" y="-277.3" font-family="Times,serif" font-size="14.00">encrypted_password :character varying</text>
<text text-anchor="start" x="498.349" y="-263.3" font-family="Times,serif" font-size="14.00">email :character varying</text>
<text text-anchor="start" x="498.349" y="-249.3" font-family="Times,serif" font-size="14.00">role :character varying</text>
<text text-anchor="start" x="498.349" y="-235.3" font-family="Times,serif" font-size="14.00">created_at :timestamp without time zone</text>
<text text-anchor="start" x="498.349" y="-221.3" font-family="Times,serif" font-size="14.00">updated_at :timestamp without time zone</text>
</g>
<!-- User&#45;&gt;Trip -->
<g id="edge1" class="edge"><title>User&#45;&gt;Trip</title>
<path fill="none" stroke="#fcb779" d="M614.212,-206.111C614.212,-197.913 614.212,-189.393 614.212,-180.846"/>
<ellipse fill="none" stroke="#fcb779" cx="614.212" cy="-210.294" rx="4" ry="4"/>
<polygon fill="#fcb779" stroke="#fcb779" points="614.212,-180.818 618.712,-170.818 614.212,-175.818 614.212,-170.818 614.212,-170.818 614.212,-170.818 614.212,-175.818 609.712,-170.818 614.212,-180.818 614.212,-180.818"/>
</g>
</g>
</svg>
