<?xml version="1.0" encoding="UTF-8" standalone="no"?>
<!DOCTYPE svg PUBLIC "-//W3C//DTD SVG 1.1//EN"
 "http://www.w3.org/Graphics/SVG/1.1/DTD/svg11.dtd">
<!-- Generated by graphviz version 2.38.0 (20140413.2041)
 -->
<!-- Title: models_diagram Pages: 1 -->
<svg width="384pt" height="153pt"
 viewBox="0.00 0.00 384.21 153.00" xmlns="http://www.w3.org/2000/svg" xmlns:xlink="http://www.w3.org/1999/xlink">
<g id="graph0" class="graph" transform="scale(1 1) rotate(0) translate(4 149)">
<title>models_diagram</title>
<polygon fill="none" stroke="none" points="-4,4 -4,-149 380.212,-149 380.212,4 -4,4"/>
<!-- _diagram_info -->
<g id="node1" class="node"><title>_diagram_info</title>
<text text-anchor="start" x="8" y="-130.6" font-family="Times,serif" font-size="13.00">Models diagram</text>
<text text-anchor="start" x="8" y="-117.6" font-family="Times,serif" font-size="13.00">Date: May 11 2016 &#45; 16:39</text>
<text text-anchor="start" x="8" y="-104.6" font-family="Times,serif" font-size="13.00">Migration version: 20160511121228</text>
<text text-anchor="start" x="8" y="-91.6" font-family="Times,serif" font-size="13.00">Generated by RailRoady 1.4.2</text>
<text text-anchor="start" x="8" y="-78.6" font-family="Times,serif" font-size="13.00">http://railroady.prestonlee.com</text>
</g>
<!-- Solution -->
<g id="node2" class="node"><title>Solution</title>
<ellipse fill="none" stroke="black" cx="264.212" cy="-108.5" rx="40.1663" ry="18"/>
<text text-anchor="middle" x="264.212" y="-104.3" font-family="Times,serif" font-size="14.00">Solution</text>
</g>
<!-- Trip -->
<g id="node3" class="node"><title>Trip</title>
<ellipse fill="none" stroke="black" cx="349.212" cy="-18" rx="27" ry="18"/>
<text text-anchor="middle" x="349.212" y="-13.8" font-family="Times,serif" font-size="14.00">Trip</text>
</g>
<!-- User -->
<g id="node4" class="node"><title>User</title>
<ellipse fill="none" stroke="black" cx="349.212" cy="-108.5" rx="27" ry="18"/>
<text text-anchor="middle" x="349.212" y="-104.3" font-family="Times,serif" font-size="14.00">User</text>
</g>
<!-- User&#45;&gt;Trip -->
<g id="edge1" class="edge"><title>User&#45;&gt;Trip</title>
<path fill="none" stroke="#7ab1f8" d="M349.212,-82.189C349.212,-70.9711 349.212,-57.7517 349.212,-46.3113"/>
<ellipse fill="none" stroke="#7ab1f8" cx="349.212" cy="-86.4363" rx="4" ry="4"/>
<polygon fill="#7ab1f8" stroke="#7ab1f8" points="349.212,-46.0113 353.712,-36.0113 349.212,-41.0113 349.212,-36.0113 349.212,-36.0113 349.212,-36.0113 349.212,-41.0113 344.712,-36.0113 349.212,-46.0113 349.212,-46.0113"/>
</g>
</g>
</svg>
